# xmcd CD database file
#
# Track frame offsets:
#	150
#	19725
#	47582
#	67200
#
# Disc length: 1264 seconds
#
# Revision: 0
# Processed by: cddbd v1.5.1PL0 Copyright (c) Steve Scherf et al.
# Submitted via: CDex 1.51
#
DISCID=3104ee04
DTITLE=THE虎舞竜 - 道化師＜ピエロ＞
DYEAR=1993
DGENRE=JPop
TTITLE0=道化師＜ピエロ＞
TTITLE1=ヨコハマ・レイニーナイト
TTITLE2=道化師＜ピエロ＞（カラオケ）
TTITLE3=ヨコハマ・レイニーナイト（カラオケ）
EXTD=YEAR: 1993
EXTT0=
EXTT1=
EXTT2=
EXTT3=
PLAYORDER=
